<svg width="31" height="27" viewBox="0 0 31 27" fill="none" xmlns="http://www.w3.org/2000/svg">
<path d="M15.3333 6.625C13.5728 6.625 12.1458 8.05209 12.1458 9.8125C12.1458 11.5729 13.5728 13 15.3333 13C17.0937 13 18.5208 11.5729 18.5208 9.8125C18.5208 8.05209 17.0937 6.625 15.3333 6.625Z" fill="#015D38"/>
<path fill-rule="evenodd" clip-rule="evenodd" d="M0.458252 2.90625C0.458252 1.43924 1.6475 0.25 3.1145 0.25H27.552C29.019 0.25 30.2083 1.43924 30.2083 2.90625V16.7188C30.2083 18.1858 29.019 19.375 27.552 19.375H3.1145C1.64749 19.375 0.458252 18.1858 0.458252 16.7188V2.90625ZM10.0208 9.8125C10.0208 6.87849 12.3992 4.5 15.3333 4.5C18.2673 4.5 20.6458 6.87849 20.6458 9.8125C20.6458 12.7465 18.2673 15.125 15.3333 15.125C12.3992 15.125 10.0208 12.7465 10.0208 9.8125ZM24.8958 8.75C24.309 8.75 23.8333 9.2257 23.8333 9.8125V9.82312C23.8333 10.4099 24.309 10.8856 24.8958 10.8856H24.9064C25.4932 10.8856 25.9689 10.4099 25.9689 9.82312V9.8125C25.9689 9.2257 25.4932 8.75 24.9064 8.75H24.8958ZM4.70825 9.8125C4.70825 9.2257 5.18395 8.75 5.77075 8.75H5.78138C6.36818 8.75 6.84388 9.2257 6.84388 9.8125V9.82312C6.84388 10.4099 6.36818 10.8856 5.78138 10.8856H5.77075C5.18395 10.8856 4.70825 10.4099 4.70825 9.82312V9.8125Z" fill="#015D38"/>
<path d="M1.52075 21.5C0.933949 21.5 0.458252 21.9757 0.458252 22.5625C0.458252 23.1493 0.933949 23.625 1.52075 23.625C9.17082 23.625 16.5802 24.6481 23.6204 26.5644C25.3071 27.0235 27.0208 25.7738 27.0208 23.9864V22.5625C27.0208 21.9757 26.5451 21.5 25.9583 21.5H1.52075Z" fill="#015D38"/>
</svg>
