<svg width="19" height="22" viewBox="0 0 19 22" fill="none" xmlns="http://www.w3.org/2000/svg">
<path fill-rule="evenodd" clip-rule="evenodd" d="M11.9482 0.594952C12.2495 0.762894 12.3973 1.11463 12.3066 1.44736L10.315 8.75003H17.583C17.8817 8.75003 18.1519 8.92721 18.2709 9.20111C18.3899 9.47502 18.3351 9.79344 18.1313 10.0118L7.63131 21.2618C7.39599 21.5139 7.01905 21.573 6.71781 21.4051C6.41658 21.2372 6.2687 20.8854 6.35945 20.5527L8.35109 13.25H1.08302C0.784377 13.25 0.514189 13.0728 0.395164 12.7989C0.276138 12.525 0.33096 12.2066 0.534733 11.9883L11.0347 0.738287C11.2701 0.486154 11.647 0.427009 11.9482 0.594952Z" fill="#929292"/>
</svg>
