<svg width="18" height="18" viewBox="0 0 18 18" fill="none" xmlns="http://www.w3.org/2000/svg">
<g clip-path="url(#clip0_206_2695)">
<path d="M9 18.0097C13.9706 18.0097 18 13.9803 18 9.00972C18 4.03915 13.9706 0.00976562 9 0.00976562C4.02944 0.00976562 0 4.03915 0 9.00972C0 13.9803 4.02944 18.0097 9 18.0097Z" fill="#929292"/>
<path d="M0 27C4.97056 27 9 22.9706 9 18C9 13.0294 4.97056 9 0 9C-4.97056 9 -9 13.0294 -9 18C-9 22.9706 -4.97056 27 0 27Z" fill="white"/>
<path d="M18 27C22.9706 27 27 22.9706 27 18C27 13.0294 22.9706 9 18 9C13.0294 9 9 13.0294 9 18C9 22.9706 13.0294 27 18 27Z" fill="white"/>
<path d="M0 9C4.97056 9 9 4.97056 9 0C9 -4.97056 4.97056 -9 0 -9C-4.97056 -9 -9 -4.97056 -9 0C-9 4.97056 -4.97056 9 0 9Z" fill="white"/>
<path d="M18 9C22.9706 9 27 4.97056 27 0C27 -4.97056 22.9706 -9 18 -9C13.0294 -9 9 -4.97056 9 0C9 4.97056 13.0294 9 18 9Z" fill="white"/>
</g>
<defs>
<clipPath id="clip0_206_2695">
<rect width="18" height="18" fill="white"/>
</clipPath>
</defs>
</svg>
