<svg width="31" height="27" viewBox="0 0 31 27" fill="none" xmlns="http://www.w3.org/2000/svg">
<path fill-rule="evenodd" clip-rule="evenodd" d="M10.3542 5.5625C10.3542 2.62849 12.7327 0.25 15.6667 0.25C18.6008 0.25 20.9792 2.62849 20.9792 5.5625C20.9792 8.49651 18.6008 10.875 15.6667 10.875C12.7327 10.875 10.3542 8.49651 10.3542 5.5625Z" fill="#015D38"/>
<path fill-rule="evenodd" clip-rule="evenodd" d="M20.9792 9.8125C20.9792 7.46529 22.882 5.5625 25.2292 5.5625C27.5765 5.5625 29.4792 7.46529 29.4792 9.8125C29.4792 12.1597 27.5765 14.0625 25.2292 14.0625C22.882 14.0625 20.9792 12.1597 20.9792 9.8125Z" fill="#015D38"/>
<path fill-rule="evenodd" clip-rule="evenodd" d="M1.85425 9.8125C1.85425 7.46529 3.75704 5.5625 6.10425 5.5625C8.45146 5.5625 10.3542 7.46529 10.3542 9.8125C10.3542 12.1597 8.45146 14.0625 6.10425 14.0625C3.75704 14.0625 1.85425 12.1597 1.85425 9.8125Z" fill="#015D38"/>
<path fill-rule="evenodd" clip-rule="evenodd" d="M7.60572 17.4165C9.30284 14.7629 12.2786 13 15.6667 13C19.0553 13 22.0314 14.7633 23.7284 17.4175C24.9016 19.2524 25.4092 21.4649 25.1711 23.6221C25.1339 23.9592 24.938 24.2583 24.6438 24.4271C21.9984 25.945 18.9323 26.8125 15.6667 26.8125C12.4012 26.8125 9.33508 25.945 6.68968 24.4271C6.3955 24.2583 6.19959 23.9592 6.16238 23.6221C5.92424 21.4644 6.43208 19.2516 7.60572 17.4165Z" fill="#015D38"/>
<path d="M5.86665 16.1927C5.84959 16.2189 5.83263 16.2452 5.81578 16.2716C4.44804 18.4101 3.82211 20.957 4.01426 23.4678C3.15286 23.3369 2.31707 23.1265 1.51485 22.8439L1.352 22.7866C1.05491 22.682 0.84732 22.4122 0.822335 22.0982L0.808639 21.9261C0.797439 21.7853 0.791748 21.6432 0.791748 21.5C0.791748 18.6456 3.0429 16.317 5.86665 16.1927Z" fill="#015D38"/>
<path d="M27.3197 23.4677C27.5118 20.9574 26.8862 18.4111 25.519 16.2728C25.5019 16.246 25.4847 16.2193 25.4674 16.1927C28.2909 16.3173 30.5417 18.6458 30.5417 21.5C30.5417 21.6432 30.5361 21.7853 30.5249 21.9261L30.5112 22.0982C30.4862 22.4122 30.2786 22.682 29.9815 22.7866L29.8186 22.8439C29.0166 23.1264 28.181 23.3368 27.3197 23.4677Z" fill="#015D38"/>
</svg>
